# xmcd CD database file generated by OrangeCD 5.2
#
# Track frame offsets:
#	150
#	14666
#	28223
#	40837
#	64534
#	75254
#	93962
#	113398
#	124982
#	144206
#	173382
#	187149
#	200006
#	213976
#	224810
#
# Disc length: 3275 seconds
#
# Revision: 2
# Processed by: cddbd v1.5.1PL0 Copyright (c) Steve Scherf et al.
# Submitted via: OrangeCD 5.2
#
DISCID=cf0cc90f
DTITLE=Various Artist - House of Blues   Essential Blues Disc 1
DYEAR=1995
DGENRE=Blues Compilation
TTITLE0=Elmore James - Dust My Blues
TTITLE1=B.B. King - Three O'Clock Blues
TTITLE2=Howlin' Wolf - Killing Floor
TTITLE3=Koko Taylor - Stop Watching Your Enemies
TTITLE4=Junior Wells - Messin' With The Kid
TTITLE5=Clarence "Gatemouth" Brown - Better Off With The Blues
TTITLE6=Albert King - When You Walk Out That Door
TTITLE7=Sonny Boy Williamson - Don't Start Me Talkin'
TTITLE8=Rufus Thomas - Blues In The Basement
TTITLE9=Little Milton - Little Bluebird
TTITLE10=Lightnin' Hopkins - Mojo Hand
TTITLE11=Jimmy Reed - Big Boss Man
TTITLE12=John Lee Hooker - Boogie Chillen
TTITLE13=Bobby "Blue" Bland - I'll Take Care Of You
TTITLE14=Otis Spann - Otis In The Dark
EXTD=
EXTT0=Elmore James\n
EXTT1=B.B.King\n
EXTT2=Howlin' Wolf\n
EXTT3=Koko Taylor\n
EXTT4=Junior Wells\n
EXTT5=Clarenece Gatemouth Brown\n
EXTT6=Albert King\n
EXTT7=Sonny Boy Williamson\n
EXTT8=Rufus Thomas\n
EXTT9=Little Milton\n
EXTT10=Lightnin' Hopkins\n
EXTT11=Jimmy Reed\n
EXTT12=John Lee Hooker\n
EXTT13=Bobby Bland\n
EXTT14=Otis Span\n
PLAYORDER=
